PathFileType	4	(X/Y/Z)	C:\Users\ebm\Documents\Erivelton\Erivelton\propulsion3.trc
DataRate	CameraRate	NumFrames	NumMarkers	Units	OrigDataRate	OrigDataStartFrame	OrigNumFrames
150.00	150.00	       4	28	mm	150.00	374	       997
Frame#	Time	IJ			PX			C7			T8			RAC			RAS			RPS			RAI			RPI			RLE			RME			RRS			RUS			R3M			R5M			LAC			LAS			LPS			LAI			LPI			LLE			LME			LRS			LUS			L3M			L5M			RW			LW			V_mid_elbow_r			V_mid_elbow_l			V_mid_wrist_r			V_mid_wrist_l			V_mid_trunk_low			V_mid_trunk_upp			
		X1	Y1	Z1	X2	Y2	Z2	X3	Y3	Z3	X4	Y4	Z4	X5	Y5	Z5	X6	Y6	Z6	X7	Y7	Z7	X8	Y8	Z8	X9	Y9	Z9	X10	Y10	Z10	X11	Y11	Z11	X12	Y12	Z12	X13	Y13	Z13	X14	Y14	Z14	X15	Y15	Z15	X16	Y16	Z16	X17	Y17	Z17	X18	Y18	Z18	X19	Y19	Z19	X20	Y20	Z20	X21	Y21	Z21	X22	Y22	Z22	X23	Y23	Z23	X24	Y24	Z24	X25	Y25	Z25	X26	Y26	Z26	X27	Y27	Z27	X28	Y28	Z28	

374	2.487	62.13335	1012.81689	-87.70825	64.96560	838.25623	-85.78186	-51.93395	1125.09558	-86.68748	-153.88440	938.18811	-80.47225	-24.58388	1079.19434	95.65158	-92.52480	942.91095	176.21834	-120.66881	988.55579	181.63193	-156.67921	899.38409	200.91782	-180.05309	944.06378	207.88887	-251.62924	897.45789	236.68481	-282.71570	878.20319	158.28278	-155.78210	641.69739	204.86467	-194.54427	640.20392	249.84846	-136.14360	563.52338	246.55652	-174.62042	561.19458	251.50536	-65.02076	1075.49268	-264.13040	-151.90231	968.02289	-342.82217	-185.89590	993.87524	-319.47287	-204.76697	915.41479	-374.79837	-245.20947	943.28394	-350.68530	-275.61710	878.17596	-389.05011	-297.89932	855.05566	-310.00311	-172.26846	636.45740	-363.15067	-214.29306	614.03149	-418.93884	-141.44791	562.55316	-419.40344	-181.81032	551.49164	-424.10178	8.40856	293.43921	225.27443	-9.34661	296.44986	-402.93515	
375	2.493	69.61073	1012.90259	-87.92469	72.74300	838.43121	-86.24084	-44.59288	1125.22974	-86.97681	-146.20369	938.26398	-80.85207	-17.30544	1079.20850	95.35519	-85.76907	942.72803	175.23679	-113.77553	988.40924	180.84776	-150.20999	899.31433	199.46152	-173.14735	943.82556	206.57419	-245.31047	897.45850	234.86630	-276.03998	878.67780	156.25865	-151.20866	641.26581	201.70132	-189.94147	639.60333	246.26300	-131.62602	563.07513	243.56903	-170.05328	560.69440	248.20865	-57.46956	1075.66345	-264.35919	-145.03516	968.39636	-342.65823	-178.82387	994.55322	-319.41864	-198.36574	915.93079	-374.28436	-238.46466	944.09796	-350.30215	-269.41513	879.00385	-388.26913	-291.66827	856.45483	-309.01132	-167.35649	636.95514	-360.40622	-209.13823	614.26886	-416.23889	-136.06441	563.03870	-416.33282	-176.31534	552.61084	-421.08615	15.62560	293.66400	224.85632	-1.86638	296.74084	-403.24347	
376	2.500	77.16546	1013.05981	-88.32568	80.53294	838.57477	-86.61559	-37.10934	1125.42688	-87.30699	-138.58208	938.41138	-81.22648	-9.93234	1079.24597	95.02799	-78.91097	942.39752	174.31123	-106.78522	988.12366	180.03969	-143.54207	899.03027	197.94762	-166.65038	943.67456	205.33636	-238.70557	897.22314	233.05994	-269.27066	879.00055	154.27342	-146.00897	640.71967	198.61807	-185.09795	638.69550	243.10162	-126.66932	562.84961	240.70760	-165.37366	560.46820	245.55861	-50.02866	1075.90857	-264.62582	-138.15181	968.62012	-342.59625	-171.65602	995.06415	-319.45886	-191.67741	916.24750	-373.90250	-231.54729	944.66998	-349.97650	-262.97195	879.52747	-387.48218	-285.29352	857.63428	-308.12256	-161.94795	637.31262	-357.61020	-203.40710	614.39642	-413.56866	-130.12387	563.67633	-413.42169	-170.08998	553.34863	-418.26541	22.80346	293.95404	224.56781	5.63311	297.05127	-403.45981	
377	2.507	84.82541	1013.28271	-88.65948	88.25460	838.80487	-86.92821	-29.54494	1125.70325	-87.64846	-130.89987	938.57806	-81.57247	-2.52830	1079.20947	94.77375	-71.87697	942.09552	173.37941	-99.83462	987.81274	179.17625	-136.57393	898.63379	196.60071	-159.47061	943.16699	204.16090	-231.93883	896.71851	231.37242	-262.41974	879.12915	152.45277	-140.42863	640.18439	195.91180	-179.88103	637.68909	240.23676	-120.46022	563.23090	238.82370	-159.19168	560.84088	243.53539	-42.47353	1076.02698	-264.94583	-131.00290	968.68701	-342.59979	-164.50281	995.38116	-319.57013	-184.76422	916.35046	-373.56641	-224.52757	945.01782	-349.78162	-256.16180	879.78986	-386.86920	-278.57211	858.50507	-307.30112	-155.91197	637.60272	-355.06238	-197.08479	614.40430	-411.08948	-123.59116	564.69305	-410.65002	-163.38426	553.56750	-415.89780	29.80716	294.35156	224.25554	12.90477	297.43646	-403.68234	
